/* XPM */
static char *_2cf74ca3135481696e8f9b6b2af6428GYIK6uS8zStbZnli[] = {
/* columns rows colors chars-per-pixel */
"16 16 4 1 ",
"  c #071821",
". c #306850",
"X c #86C06C",
"o c #E0F8CF",
/* pixels */
"................",
"....XX..........",
"..  X...........",
". XXo...........",
". XXo...........",
". XXo...........",
". XX............",
". XXo...........",
".. Xooo.........",
".. XXXo.........",
"... XXXoo.......",
".... XXXXoooo...",
".....   XXXXXoo.",
"........     X..",
"................",
"................"
};
