/* XPM */
static char *e712000f8ba540f6c85cd03ef24fc13bF4h8VUKehfYvxn1a[] = {
/* columns rows colors chars-per-pixel */
"16 16 9 1 ",
"  c #071821",
". c #306850",
"X c #7FB869",
"o c #84BE6B",
"O c #85BF6C",
"+ c #86C06C",
"@ c #DAF2CA",
"# c #DEF7CE",
"$ c #E0F8CF",
/* pixels */
"................",
"................",
"................",
"................",
"....O++++++O....",
"..o+        ++..",
".+            O.",
"+              X",
"#              #",
".$            $.",
"..$$        $$..",
"....#$$$$$#@....",
"................",
"................",
"................",
"................"
};
