/* XPM */
static char *bd9febdf4d3a4953fc9876cb100116bdfZIwPxzrVnjyy78n[] = {
/* columns rows colors chars-per-pixel */
"16 16 4 1 ",
"  c None",
". c #071821",
"X c #86C06C",
"o c #E0F8CF",
/* pixels */
"                ",
"     ......     ",
"    .XXXXXX.    ",
"   .XXXXXXXX.   ",
"   .XXXXXXXX.   ",
"  .oXXXXXXXXo.  ",
"  .oXXXXXXXXo.  ",
"   .XXXXXXXX.   ",
"    .XXXXXX.    ",
"   .X..XX..X.   ",
"  .XXXXXXXXXX.  ",
" .XX.XXXXXX.XX. ",
" .Xo.XXXXXX.oX. ",
"  ...XXXXXX...  ",
"    .XX..XX.    ",
"    .XX..XX.    "
};
