/* XPM */
static char *fd6d3ca87c2c46078c033f1d0ac3f091Cdjrr9Qi5tCqYyvy[] = {
/* columns rows colors chars-per-pixel */
"16 16 2 1 ",
"  c #306850",
". c #86C06C",
/* pixels */
"                ",
" ...............",
" . .............",
" ...............",
"                ",
"........ .......",
"...... . . .....",
"........ .......",
"                ",
" ...............",
" . .............",
" ...............",
"                ",
"........ .......",
"...... . . .....",
"........ ......."
};
